<?xml version="1.0" encoding="utf-8"?>
<!-- Generator: Adobe Illustrator 19.0.0, SVG Export Plug-In . SVG Version: 6.00 Build 0)  -->
<svg version="1.1" id="Calque_1" xmlns="http://www.w3.org/2000/svg" xmlns:xlink="http://www.w3.org/1999/xlink" x="0px" y="0px"
	 viewBox="-223 25 512 512" style="enable-background:new -223 25 512 512;" xml:space="preserve">
<style type="text/css">
	.st0{fill:#FFFFFF;}
</style>
<path id="XMLID_6_" class="st0" d="M33,25c-141.4,0-256,114.6-256,256s114.6,256,256,256s256-114.6,256-256S174.4,25,33,25z
	 M-21.2,419.9l-39.6-28.6l-39.6,28.8l15.1-46.5l-39.6-28.7h48.9l15.1-46.5l15.1,46.5H3.3l-39.6,28.7L-21.2,419.9z M-36.3,217.9
	l15.1,46.6l-39.6-28.7l-39.6,28.8l15.1-46.7l-39.6-28.9h48.9l15.1-46.5l15.1,46.5H3.3L-36.3,217.9z M166.3,419.9l-39.6-28.6
	l-39.6,28.8l15.1-46.5L62.7,345h48.9l15.1-46.5l15.1,46.5h48.9l-39.6,28.7L166.3,419.9z M151.2,217.9l15.1,46.6l-39.6-28.7
	l-39.6,28.8l15.1-46.7L62.7,189h48.9l15.1-46.5l15.1,46.5h48.9L151.2,217.9z"/>
</svg>
