<?xml version="1.0" encoding="utf-8"?>
<!-- Generator: Adobe Illustrator 19.0.0, SVG Export Plug-In . SVG Version: 6.00 Build 0)  -->
<svg version="1.1" id="Capa_1" xmlns="http://www.w3.org/2000/svg" xmlns:xlink="http://www.w3.org/1999/xlink" x="0px" y="0px"
	 viewBox="-41 164.9 512 512" style="enable-background:new -41 164.9 512 512;" xml:space="preserve">
<style type="text/css">
	.st0{fill:#FFFFFF;}
</style>
<g>
	<path class="st0" d="M443.6,389.9c-20.4-70-43.4-106.2-43.7-106.8c-1.3-1.6-33.8-40.5-112.1-69.2l-10.3,28.2
		c37.2,13.7,63.7,30.4,78.2,41.1c-43.4-13-95-20.9-140.7-20.9s-97.3,7.9-140.7,20.9c14.5-10.8,40.9-27.5,78.2-41.1l-10.3-28.2
		c-78.3,28.7-110.7,67.6-112.1,69.2c-0.4,0.6-23.4,36.8-43.7,106.8C-33.3,457.4-40.7,552.6-41,556.4c1.8,2.7,42,71.5,151.7,71.5
		l27.8-40.3c-31.1-8.3-60.9-21.6-88-39.7l16.6-25c43.9,29.2,95,44.6,147.9,44.6s104.1-15.4,147.9-44.6l16.6,25
		c-27.2,18.1-56.9,31.4-88,39.7l27.8,40.3c109.7,0,149.9-68.7,151.7-71.5C470.7,552.6,463.3,457.4,443.6,389.9L443.6,389.9z
		 M145.6,468.4h-30v-50h30V468.4z M314.4,468.4h-30v-50h30V468.4z"/>
</g>
</svg>
