<?xml version="1.0" encoding="utf-8"?>
<!-- Generator: Adobe Illustrator 19.0.0, SVG Export Plug-In . SVG Version: 6.00 Build 0)  -->
<svg version="1.1" id="Calque_1" xmlns="http://www.w3.org/2000/svg" xmlns:xlink="http://www.w3.org/1999/xlink" x="0px" y="0px"
	 viewBox="-41 164.9 512 512" style="enable-background:new -41 164.9 512 512;" xml:space="preserve">
<style type="text/css">
	.st0{fill:#FFFFFF;}
</style>
<g>
	<path class="st0" d="M221.2,623.5c79.6,0,190.7,1.9,231.1-79C467.6,513.7,471,478,471,444.3h0c0-44.2-12.3-86.3-41.6-120.6
		c16.8-50.4,5.5-80.1-7.4-105.6c-47.8,0-78.7,9-115,37.2c-58.6-13.9-124.9-12.2-180.4,0.9c-36.8-28.5-67.7-38-116.1-38
		c-13.2,26.4-24.2,55.4-7.3,106.2c-57.1,65.8-52.6,161.4-22.7,220.2C22.6,626.4,140.3,623.5,221.2,623.5L221.2,623.5z M108.4,410.4
		c20.3,0,39.8,3.6,59.7,6.3c72.9,11.1,111.3-6.3,155.9-6.3c49.9,0,78.4,40.9,78.4,87.2c0,92.8-85.7,106.9-160.6,106.9
		C190.2,601.1,30,625.3,30,497.6C30,451.3,58.4,410.4,108.4,410.4L108.4,410.4z"/>
	<path class="st0" d="M314.3,555.8c27.5,0,39.1-36.1,39.1-58.2s-11.6-58.2-39.1-58.2s-39.1,36.1-39.1,58.2S286.8,555.8,314.3,555.8
		L314.3,555.8z"/>
	<path class="st0" d="M118.4,555.8c27.5,0,39.1-36.1,39.1-58.2s-11.6-58.2-39.1-58.2s-39.1,36.1-39.1,58.2S90.8,555.8,118.4,555.8
		L118.4,555.8z"/>
</g>
</svg>
