<?xml version="1.0" encoding="utf-8"?>
<!-- Generator: Adobe Illustrator 19.0.0, SVG Export Plug-In . SVG Version: 6.00 Build 0)  -->
<svg version="1.1" id="color" xmlns="http://www.w3.org/2000/svg" xmlns:xlink="http://www.w3.org/1999/xlink" x="0px" y="0px"
	 viewBox="-41 164.9 512 512" style="enable-background:new -41 164.9 512 512;" xml:space="preserve">
<style type="text/css">
	.st0{fill:#FFFFFF;}
</style>
<path class="st0" d="M350.6,303.6H79.4C13,303.6-41,356.2-41,420.9S13,538.2,79.4,538.2c34.8,0,68.2-15,91-40.5h89.3
	c22.8,25.5,56.2,40.5,91,40.5c66.3,0,120.3-52.6,120.3-117.3S417,303.6,350.6,303.6z M108.3,442.2H97.7v10.7
	c0,11.8-9.5,21.3-21.3,21.3c-11.8,0-21.3-9.6-21.3-21.3v-10.7H44.3c-11.8,0-21.3-9.6-21.3-21.3s9.5-21.3,21.3-21.3H55v-10.7
	c0-11.8,9.5-21.3,21.3-21.3c11.8,0,21.3,9.6,21.3,21.3v10.7h10.7c11.8,0,21.3,9.6,21.3,21.3S120.1,442.2,108.3,442.2z M343,356.9
	c11.8,0,21.3,9.6,21.3,21.3c0,11.8-9.6,21.3-21.3,21.3c-11.8,0-21.3-9.6-21.3-21.3C321.7,366.4,331.2,356.9,343,356.9z M300.3,442.2
	c-11.8,0-21.3-9.6-21.3-21.3s9.6-21.3,21.3-21.3c11.8,0,21.3,9.6,21.3,21.3S312.1,442.2,300.3,442.2z M343,484.9
	c-11.8,0-21.3-9.6-21.3-21.3c0-11.8,9.6-21.3,21.3-21.3c11.8,0,21.3,9.6,21.3,21.3C364.3,475.3,354.8,484.9,343,484.9z M385.7,442.2
	c-11.8,0-21.3-9.6-21.3-21.3s9.6-21.3,21.3-21.3s21.3,9.6,21.3,21.3S397.4,442.2,385.7,442.2z"/>
</svg>
