<?xml version="1.0" encoding="utf-8"?>
<!-- Generator: Adobe Illustrator 19.0.0, SVG Export Plug-In . SVG Version: 6.00 Build 0)  -->
<svg version="1.1" id="Capa_1" xmlns="http://www.w3.org/2000/svg" xmlns:xlink="http://www.w3.org/1999/xlink" x="0px" y="0px"
	 viewBox="-52 176.6 489.3 489.3" style="enable-background:new -52 176.6 489.3 489.3;" xml:space="preserve">
<style type="text/css">
	.st0{fill:#FFFFFF;}
</style>
<g>
	<circle class="st0" cx="310.7" cy="335.8" r="42.7"/>
	<path class="st0" d="M436.7,323.7c-6.2-65.2-60.6-115.2-126-115.9c-70.1,0.1-127.1,56.5-128,126.5l-71.8,87.7
		c-23.9-3.5-48.4,1.7-68.8,14.6l-78.9-35.9c-3.3-1.5-7.2-1.2-10.2,0.7c-3.1,2-4.9,5.3-4.9,9v128c0,4.6,2.9,8.7,7.3,10.1l41.6,13.8
		c18.7,55.6,79,85.4,134.5,66.6c36.2-12.2,63-42.9,70.3-80.4l119.6-85.5C391.7,456.6,443.4,394.1,436.7,323.7z M155.1,555.7
		c-7.4,15.3-20.5,27-36.6,32.6c-6.8,2.4-14,3.6-21.2,3.5c-9.6,0-19.1-2.2-27.7-6.4c-5.3-2.6-7.5-8.9-4.9-14.3
		c2.6-5.3,8.9-7.5,14.3-4.9c20.9,10.8,46.7,2.7,57.5-18.3c10.8-20.9,2.7-46.7-18.3-57.5c-0.7-0.4-1.4-0.7-2.1-1
		c-5.3-2.6-7.5-8.9-4.9-14.3c2.6-5.3,8.9-7.5,14.3-4.9C157.1,485.6,170.5,523.8,155.1,555.7z M310.7,399.8c-35.3,0-64-28.7-64-64
		c0-35.3,28.7-64,64-64c35.3,0,64,28.7,64,64C374.7,371.1,346,399.8,310.7,399.8z"/>
</g>
</svg>
